<?xml version="1.0" encoding="UTF-8" standalone="no"?>
<svg
   viewBox="0 0 1440 120"
   version="1.1"
   id="svg1"
   sodipodi:docname="separator-contact.svg"
   inkscape:version="1.3.2 (091e20ef0f, 2023-11-25)"
   width="1440"
   height="120"
   xmlns:inkscape="http://www.inkscape.org/namespaces/inkscape"
   xmlns:sodipodi="http://sodipodi.sourceforge.net/DTD/sodipodi-0.dtd"
   xmlns="http://www.w3.org/2000/svg"
   xmlns:svg="http://www.w3.org/2000/svg">
  <defs
     id="defs1" />
  <sodipodi:namedview
     id="namedview1"
     pagecolor="#505050"
     bordercolor="#eeeeee"
     borderopacity="1"
     inkscape:showpageshadow="0"
     inkscape:pageopacity="0"
     inkscape:pagecheckerboard="0"
     inkscape:deskcolor="#505050"
     inkscape:zoom="0.88680556"
     inkscape:cx="721.12764"
     inkscape:cy="159.56147"
     inkscape:window-width="1920"
     inkscape:window-height="1128"
     inkscape:window-x="0"
     inkscape:window-y="0"
     inkscape:window-maximized="1"
     inkscape:current-layer="svg1"
     showguides="false" />
  <path
     fill="#fff"
     fill-opacity="1"
     d="m 0,74.778662 34.3,3.024177 c 34.3,2.911124 102.7,9.129057 171.7,9.044267 68.3,0.08479 137,-6.133143 205,-13.566404 69,-7.54631 138,-16.590577 206,-12.068443 68.7,4.522133 137,22.61067 206,28.63076 68.4,6.133144 137,-0.08479 206,-4.522133 68.1,-4.606923 137,-7.433257 205,-7.518047 68.9,0.08479 137,2.911124 172,4.522133 l 34,1.497957 V 120 h -34.3 c -34.3,0 -102.7,0 -171.7,0 -68.3,0 -137,0 -205,0 -69,0 -138,0 -206,0 -68.7,0 -137,0 -206,0 -68.4,0 -137,0 -206,0 -68.1,0 -137,0 -205,0 -68.9,0 -137,0 -172,0 H 0 Z"
     id="path1"
     style="fill:#e6e6e6;fill-opacity:1;stroke-width:0.531633" />
</svg>
